<?xml version="1.0" standalone="no"?><!DOCTYPE svg PUBLIC "-//W3C//DTD SVG 1.1//EN" "http://www.w3.org/Graphics/SVG/1.1/DTD/svg11.dtd"><svg t="1647656367323" class="icon" viewBox="0 0 1024 1024" version="1.1" xmlns="http://www.w3.org/2000/svg" p-id="1381" xmlns:xlink="http://www.w3.org/1999/xlink" width="200" height="200"><defs><style type="text/css"></style></defs><path d="M512 900.8c214.4 0 388.9-174.4 388.9-388.9 0-54-11.1-105.4-31-152.1 10.1 106.6-34.1 271.1-172 382.9-143.8 116.6-375.7 80.7-477 26.6 71.2 80.6 175.3 131.5 291.1 131.5z" fill="#FFD524" p-id="1382"></path><path d="M512 64.2c-26.1 0-52.2 2.3-77.7 6.7-16 2.8-26.7 18.1-23.9 34.1 2.8 16 18.1 26.7 34.1 23.9 22.2-3.9 44.9-5.9 67.6-5.9 160.5 0 298.5 97.7 357.8 236.7 20 46.8 31 98.2 31 152.1 0 214.4-174.4 388.9-388.9 388.9-115.8 0-219.9-50.9-291.2-131.5-60.7-68.6-97.7-158.7-97.7-257.4 0-124.2 57.2-238 157.1-312.3 13-9.7 15.8-28.2 6.1-41.2-9.7-13-28.2-15.8-41.2-6.1C131.8 236.7 64.2 371.1 64.2 512c0 246.9 200.9 447.8 447.8 447.8S959.7 758.9 959.7 512 758.9 64.2 512 64.2z" fill="#333333" p-id="1383"></path><path d="M343.2 158.6c4 0 8-0.8 11.9-2.5 3.4-1.5 6.8-3 10.3-4.4 15-6.2 22.3-23.4 16.1-38.4-6.2-15-23.3-22.3-38.4-16.1-3.9 1.6-7.8 3.3-11.7 5-14.9 6.6-21.6 24-15 38.8 4.7 11 15.5 17.6 26.8 17.6zM394.6 787.4c66.2 0 120.9-50.5 127.4-115.1 0.4-2 0.7-4 0.7-6.1V313.6H663c-8 21.5-27.6 49.4-75.9 63.8-15.6 4.6-24.5 21-19.8 36.6 3.8 12.8 15.5 21.1 28.2 21.1 2.8 0 5.6-0.4 8.4-1.2C705.3 403.8 728.9 322 727.2 283c-0.7-15.8-13.6-28.2-29.4-28.2H493.3c-16.3 0-29.4 13.2-29.4 29.4v375.2c0 38.2-31.1 69.2-69.2 69.2s-69.2-31.1-69.2-69.2c0-38.2 31.1-69.2 69.2-69.2 16.3 0 29.4-13.2 29.4-29.4s-13.2-29.4-29.4-29.4c-70.6 0-128.1 57.5-128.1 128.1s57.4 127.9 128 127.9z" fill="#333333" p-id="1384"></path></svg>